#!OML:ASF E:\emotionWalksFemale\Project 1\Capture day 1\Session 1\Female1.ASF
:FULLY-SPECIFIED
:DEGREES
766
root 9.61217 15.5671 -25.5138 176.978 0.151524 -176.793
lowerback 9.86366 1.20668 3.68082
upperback -5.25719 2.28615 0.03892
thorax -11.0989 0.869131 -2.47712
lowerneck -10.7546 -2.82853 -7.28194
upperneck 14.713 -4.21161 7.90272
head 6.55764 -1.94385 3.3507
rclavicle 2.78299e-015 -2.5842e-015
rhumerus -21.3748 27.6139 -82.3041
rradius 58.4883
rwrist -16.6794
rhand -0.584753 -50.3141
rfingers 7.12502
rthumb -154.97 461.306
lclavicle 2.78299e-015 -2.5842e-015
lhumerus -63.7362 -5.21937 74.1166
lradius 32.7865
lwrist -11.9695
lhand -12.3992 325.701
lfingers 7.12502
lthumb 13.6723 -4.76829
rfemur 0.306298 13.5204 31.8543
rtibia -3.02153e-014
rfoot 2.50168 -24.5181
rtoes 16.4168
lfemur -25.4657 6.62254 -13.6729
ltibia 97.1981
lfoot -5.54855 -10.4809
ltoes -21.0487
767
root 9.61411 15.5957 -25.6276 176.808 0.0354827 -176.888
lowerback 10.286 1.56883 3.8702
upperback -5.30025 2.59 -0.134657
thorax -11.3598 0.893218 -2.82836
lowerneck -10.6889 -3.08585 -7.57851
upperneck 14.9356 -4.58212 8.09648
head 6.65814 -2.13139 3.42968
rclavicle -1.52567e-014 -1.59028e-014
rhumerus -18.9759 28.279 -80.465
rradius 59.2848
rwrist -17.6315
rhand -0.934138 -49.7131
rfingers 7.12502
rthumb -155.305 461.861
lclavicle -1.52567e-014 -1.59028e-014
lhumerus -65.349 -6.21451 73.2529
lradius 33.3218
lwrist -10.7154
lhand -12.1242 325.726
lfingers 7.12502
lthumb 13.9373 -4.76139
rfemur 1.03512 13.1638 31.8946
rtibia 1.11319e-014
rfoot 1.81727 -24.5329
rtoes 16.798
lfemur -28.0434 6.1052 -13.7599
ltibia 100.288
lfoot -5.53253 -10.463
ltoes -14.4754
768
root 9.6128 15.626 -25.7397 176.688 -0.058035 -177
lowerback 10.1068 1.7627 3.93566
upperback -5.17638 2.84582 -0.236952
thorax -11.0846 1.01934 -3.01412
lowerneck -10.6006 -3.40101 -7.83153
upperneck 15.0764 -5.03057 8.26108
head 6.73585 -2.35602 3.4835
rclavicle -2.9122e-014 1.19271e-015
rhumerus -16.4299 28.7243 -78.4815
rradius 60.0572
rwrist -18.401
rhand -0.445739 -50.385
rfingers 7.12502
rthumb -154.837 461.254
lclavicle -2.9122e-014 1.19271e-015
lhumerus -66.7694 -6.9952 72.3878
lradius 33.8926
lwrist -9.39215
lhand -11.8163 325.99
lfingers 7.12502
lthumb 14.234 -4.51747
rfemur 1.68752 12.839 31.8892
rtibia -1.70955e-014
rfoot 1.63182 -24.0349
rtoes 13.0125
lfemur -30.5327 5.53883 -13.9016
ltibia 103.119
lfoot -7.61693 -10.104
ltoes -19.0926
769
root 9.60881 15.6537 -25.8558 176.562 -0.0259871 -177.018
lowerback 9.97477 2.00114 4.12448
upperback -5.02168 3.18393 -0.324508
thorax -10.7908 1.17925 -3.26682
lowerneck -10.5435 -3.65837 -8.10735
upperneck 15.096 -5.39259 8.50811
head 6.77762 -2.53024 3.57523
rclavicle 1.92821e-014 -8.74653e-015
rhumerus -13.9413 28.6946 -76.471
rradius 60.7822
rwrist -19.0822
rhand -0.135316 -50.9323
rfingers 7.12502
rthumb -154.539 460.748
lclavicle 1.92821e-014 -8.74653e-015
lhumerus -67.9986 -7.7546 71.405
lradius 34.4595
lwrist -8.2449
lhand -11.1558 326.599
lfingers 7.12502
lthumb 14.8704 -3.95492
rfemur 2.38032 12.6294 31.9886
rtibia -1.66979e-014
rfoot 1.14789 -23.7809
rtoes 10.2117
lfemur -32.9306 5.078 -13.9091
ltibia 105.74
lfoot -9.04528 -9.71309
ltoes -21.7299
770
root 9.60378 15.6793 -25.9765 176.4 0.0637278 -176.963
lowerback 10.3183 2.22661 4.28574
upperback -5.1964 3.52738 -0.335315
thorax -11.1558 1.3131 -3.45632
lowerneck -10.2357 -3.80544 -8.38671
upperneck 15.3663 -5.6468 8.66017
head 6.84426 -2.67543 3.65122
rclavicle -1.78906e-015 1.11319e-014
rhumerus -12.0735 28.7911 -74.7205
rradius 61.4188
rwrist -19.8862
rhand -0.290959 -50.6282
rfingers 7.12502
rthumb -154.688 461.031
lclavicle -1.78906e-015 1.11319e-014
lhumerus -69.7096 -8.49919 70.3162
lradius 34.8886
lwrist -7.31175
lhand -10.3135 326.774
lfingers 7.12502
lthumb 15.6817 -3.84133
rfemur 3.16529 12.463 32.1786
rtibia 1.74931e-014
rfoot 0.188048 -23.9375
rtoes 10.9188
lfemur -35.1977 4.65525 -13.8188
ltibia 108.121
lfoot -10.3357 -9.30359
ltoes -21.0439
771
root 9.60249 15.7063 -26.0937 176.449 0.2778 -176.905
lowerback 9.73432 2.31016 4.22776
upperback -5.23813 3.8167 -0.230294
thorax -10.844 1.558 -3.34745
lowerneck -9.20518 -3.81797 -8.5786
upperneck 15.0488 -5.7184 8.70571
head 6.57447 -2.7523 3.7031
rclavicle -8.00108e-015 -3.97569e-015
rhumerus -9.91571 29.0386 -72.9086
rradius 61.8203
rwrist -20.5748
rhand -0.331301 -50.1315
rfingers 7.12502
rthumb -154.727 461.523
lclavicle -8.00108e-015 -3.97569e-015
lhumerus -71.3317 -8.89019 69.1228
lradius 35.0898
lwrist -6.58067
lhand -10.0429 326.208
lfingers 7.12502
lthumb 15.9423 -4.4283
rfemur 3.68174 12.4617 32.3449
rtibia 2.0276e-014
rfoot -0.499966 -24.0273
rtoes 12.3968
lfemur -37.571 4.44291 -13.725
ltibia 110.223
lfoot -11.6579 -8.8228
ltoes -20.5178
772
root 9.60203 15.7324 -26.2076 176.455 0.542103 -176.746
lowerback 9.64452 2.54424 4.41095
upperback -5.29678 4.16585 -0.193625
thorax -10.8183 1.71672 -3.46901
lowerneck -8.89511 -3.91964 -8.70718
upperneck 14.9655 -5.89037 8.84164
head 6.5171 -2.84434 3.75647
rclavicle 1.21756e-014 -4.37326e-015
rhumerus -7.89366 28.7961 -71.2368
rradius 62.1489
rwrist -20.8341
rhand -0.123393 -49.8954
rfingers 7.12502
rthumb -154.528 461.787
lclavicle 1.21756e-014 -4.37326e-015
lhumerus -72.6635 -9.35048 67.775
lradius 35.1108
lwrist -6.18778
lhand -10.1899 325.475
lfingers 7.12502
lthumb 15.8008 -5.15025
rfemur 4.19845 12.4938 32.623
rtibia -3.57812e-015
rfoot -0.941693 -23.9175
rtoes 12.777
lfemur -39.8703 4.31304 -13.4801
ltibia 112.121
lfoot -12.8064 -8.37197
ltoes -20.4863
